<?xml version="1.0" encoding="UTF-8" standalone="no"?>
<svg
   xmlns:dc="http://purl.org/dc/elements/1.1/"
   xmlns:cc="http://creativecommons.org/ns#"
   xmlns:rdf="http://www.w3.org/1999/02/22-rdf-syntax-ns#"
   xmlns:svg="http://www.w3.org/2000/svg"
   xmlns="http://www.w3.org/2000/svg"
   viewBox="0 0 42.666668 42.666668"
   height="42.666668"
   width="42.666668"
   xml:space="preserve"
   id="svg2"
   version="1.1"><metadata
     id="metadata8"><rdf:RDF><cc:Work
         rdf:about=""><dc:format>image/svg+xml</dc:format><dc:type
           rdf:resource="http://purl.org/dc/dcmitype/StillImage" /></cc:Work></rdf:RDF></metadata><defs
     id="defs6" /><g
     transform="matrix(1.3333333,0,0,-1.3333333,0,42.666667)"
     id="g10"><g
       id="g12"><path
         id="path14"
         style="fill:#2ec1ce;fill-opacity:1;fill-rule:nonzero;stroke:none"
         d="M 32,16 C 32,7.163445 24.836555,0 16,0 7.163444,0 0,7.163445 0,16 c 0,8.836555 7.163444,16 16,16 8.836555,0 16,-7.163445 16,-16 z" /></g><g
       transform="translate(6.399994,9.149536)"
       id="g16"><path
         id="path18"
         style="fill:#ffffff;fill-opacity:1;fill-rule:evenodd;stroke:none"
         d="m 18.776897,13.854369 c -0.624837,0.624839 -1.637903,0.624839 -2.262741,0 L 6.857602,4.197814 2.731371,8.324044 c -0.624838,0.624839 -1.637902,0.624839 -2.262741,0 -0.624839,-0.624839 -0.624841,-1.637901 -2e-6,-2.26274 L 5.748797,0.781135 c 0.624839,-0.624838 1.637903,-0.624838 2.262742,1e-6 0.077378,0.077378 0.145174,0.16071 0.203387,0.24852 l 10.561971,10.561971 c 0.62484,0.62484 0.62484,1.637903 0,2.262742 z" /></g></g></svg>