<?xml version="1.0" encoding="UTF-8" standalone="no"?>
<svg
   xmlns:dc="http://purl.org/dc/elements/1.1/"
   xmlns:cc="http://creativecommons.org/ns#"
   xmlns:rdf="http://www.w3.org/1999/02/22-rdf-syntax-ns#"
   xmlns:svg="http://www.w3.org/2000/svg"
   xmlns="http://www.w3.org/2000/svg"
   viewBox="0 0 42.666668 42.666668"
   height="42.666668"
   width="42.666668"
   xml:space="preserve"
   id="svg2"
   version="1.1"><metadata
     id="metadata8"><rdf:RDF><cc:Work
         rdf:about=""><dc:format>image/svg+xml</dc:format><dc:type
           rdf:resource="http://purl.org/dc/dcmitype/StillImage" /></cc:Work></rdf:RDF></metadata><defs
     id="defs6" /><g
     transform="matrix(1.3333333,0,0,-1.3333333,0,42.666667)"
     id="g10"><g
       transform="translate(1,1)"
       id="g12"><path
         id="path14"
         style="fill:#fbc02c;fill-opacity:1;fill-rule:nonzero;stroke:none"
         d="M 30,15 C 30,6.715729 23.284271,0 15,0 6.715729,0 0,6.715729 0,15 c 0,8.284271 6.715729,15 15,15 8.284271,0 15,-6.715729 15,-15 z" /></g><g
       transform="rotate(90,12.533447,19.533448)"
       id="g16"><path
         id="path18"
         style="fill:#121619;fill-opacity:1;fill-rule:evenodd;stroke:none"
         d="m 18.066895,16.066963 c 0,1.104456 -0.895339,1.999806 -1.999793,1.999821 l -8.000414,1.11e-4 c -1.104455,1.3e-5 -1.999793,-0.895312 -1.999793,-1.999768 0,-1.104455 0.895337,-1.999805 1.999793,-1.99982 l 8.000413,-1.09e-4 c 1.104455,-1.5e-5 1.999794,0.89531 1.999794,1.999765 z M 0,16.066965 c 0,-1.104456 0.89543,-1.999794 2,-1.999794 1.104569,0 2,0.895338 2,1.999792 0,1.104456 -0.895431,1.999794 -2,1.999794 -1.104569,0 -2,-0.895338 -2,-1.999792 z" /></g></g></svg>