<svg
    xmlns="http://www.w3.org/2000/svg"
    viewBox="0 0 48 48"
    id="vector">
    <path
        id="path"
        d="M 44 24 C 44 29.302 41.891 34.393 38.142 38.142 C 34.393 41.891 29.302 44 24 44 C 18.698 44 13.607 41.891 9.858 38.142 C 6.109 34.393 4 29.302 4 24 C 4 18.698 6.109 13.607 9.858 9.858 C 13.607 6.109 18.698 4 24 4 C 29.302 4 34.393 6.109 38.142 9.858 C 41.891 13.607 44 18.698 44 24 Z"
        fill="#2ec1ce"
        fill-opacity="0.8"
        stroke-opacity="0.8"/>
    <path
        id="path_1"
        d="M 18 15 C 16.343 15 15 16.343 15 18 L 15 21 L 17 21 L 17 18 C 17 17.448 17.448 17 18 17 L 21 17 L 21 15 L 18 15 Z"
        fill="#ffffff"/>
    <path
        id="path_2"
        d="M 27 15 L 27 17 L 30 17 C 30.552 17 31 17.448 31 18 L 31 21 L 33 21 L 33 18 C 33 16.343 31.657 15 30 15 L 27 15 Z"
        fill="#ffffff"/>
    <path
        id="path_3"
        d="M 21 31 L 18 31 C 17.448 31 17 30.552 17 30 L 17 27 L 15 27 L 15 30 C 15 31.657 16.343 33 18 33 L 21 33 L 21 31 Z"
        fill="#ffffff"/>
    <path
        id="path_4"
        d="M 27 33 L 30 33 C 31.657 33 33 31.657 33 30 L 33 27 L 31 27 L 31 30 C 31 30.552 30.552 31 30 31 L 27 31 L 27 33 Z"
        fill="#ffffff"/>
    <path
        id="path_5"
        d="M 25.521 27.521 C 24.914 27.828 24.227 28 23.5 28 C 21.015 28 19 25.985 19 23.5 C 19 21.015 21.015 19 23.5 19 C 24.181 19 24.828 19.152 25.407 19.423 C 26.939 20.14 28 21.696 28 23.5 C 28 24.531 27.653 25.482 27.069 26.241 L 28.643 27.814 C 29.033 28.205 29.033 28.838 28.643 29.228 C 28.252 29.619 27.619 29.619 27.228 29.228 Z M 26 23.5 C 26 22.501 25.414 21.635 24.558 21.234 C 24.239 21.084 23.882 21 23.5 21 C 22.119 21 21 22.119 21 23.5 C 21 24.881 22.119 26 23.5 26 C 24.881 26 26 24.881 26 23.5 Z"
        fill="#ffffff"/>
</svg>
