<svg width="419" height="519" viewBox="0 0 419 519" fill="none" xmlns="http://www.w3.org/2000/svg">
<path d="M27.8 377.7V141.3L209.5 23.1L391.2 141.3V377.7L209.5 495.9L27.8 377.7Z" fill="#512BD4"/>
<path d="M289 230.5L209.5 181.7L130 230.5V328.3L209.5 377.1L289 328.3V230.5Z" fill="white"/>
<path d="M209.5 336L175.2 308.3L175 308.1L174.9 308.3L174.7 308.1V246.7L175 246.9L175.2 246.7L209.5 219L243.8 246.7L244 246.9L244.1 246.7L244.3 246.9V308.3L244.1 308.1L243.9 308.3L243.7 308.1L209.5 336Z" fill="#512BD4"/>
</svg>

